<svg xmlns="http://www.w3.org/2000/svg" viewBox="0 0 1000 1000">
<path fill="#FF8000" d="M818.1,490.6c0-170.7-138.9-309.5-309.5-309.5C337.9,181,199,319.9,199,490.6c0,170.7,138.9,309.5,309.5,309.5C679.3,800.1,818.1,661.3,818.1,490.6z M508.6,758.9c-147.9,0-268.3-120.3-268.3-268.3c0-147.9,120.4-268.3,268.3-268.3c147.9,0,268.3,120.4,268.3,268.3C776.8,638.5,656.5,758.9,508.6,758.9z"/><path fill="#FF8000" d="M146.6,502.6v-5.2c0-22.8-18-37-40.2-31.7l-79.6,18.8c-22.2,5.3-22.6,15-0.8,21.8l81.1,25.3C129,538.4,146.6,525.4,146.6,502.6z"/><path fill="#FF8000" d="M973.9,493.7l-81.2-25.3c-21.8-6.8-39.4,6.2-39.4,29v5.2c0,22.8,18,37,40.2,31.7l79.6-18.8C995.3,510.3,995.7,500.5,973.9,493.7z"/><path fill="#FF8000" d="M168.8,623.3l-1.8-4.8c-7.8-21.4-29.5-28.6-48.6-16.1l-68.3,44.9c-19.1,12.5-16,21.8,6.7,20.7l84.9-4C164.5,662.9,176.6,644.7,168.8,623.3z"/><path fill="#FF8000" d="M831.2,376.7l1.8,4.8c7.8,21.4,29.5,28.7,48.6,16.1l68.3-44.9c19.1-12.5,16.1-21.8-6.7-20.7l-84.9,4C835.5,337.1,823.4,355.3,831.2,376.7z"/><path fill="#FF8000" d="M227.7,725.2c-14.7-17.5-37.6-16.8-51.2,1.5l-48.9,65.6c-13.6,18.3-7.6,25.9,13.4,17.1l78.4-32.8c21-8.8,26.2-30,11.5-47.5L227.7,725.2z"/><path fill="#FF8000" d="M772.4,274.9c14.7,17.5,37.6,16.8,51.2-1.5l48.9-65.6c13.6-18.3,7.6-26-13.5-17.2l-78.4,32.8c-21,8.8-26.2,30.1-11.6,47.5L772.4,274.9z"/><path fill="#FF8000" d="M325.6,807.3l-4.5-2.5c-19.7-11.4-41-2.9-47.6,18.9L250,902c-6.5,21.8,1.7,27,18.5,11.6l62.5-57.6C347.7,840.5,345.3,818.7,325.6,807.3z"/><path fill="#FF8000" d="M674.4,192.7l4.5,2.6c19.7,11.4,41,3,47.6-18.9L750,98c6.5-21.8-1.8-27-18.5-11.6L669,144.1C652.3,159.5,654.7,181.3,674.4,192.7z"/><path fill="#FF8000" d="M441.2,848.4l-5.1-0.9c-22.5-4-39.6,11.3-38.3,34l4.7,81.6c1.3,22.8,10.9,24.8,21.3,4.5l39-75.5C473.4,872,463.6,852.4,441.2,848.4z"/><path fill="#FF8000" d="M558.8,151.6l5.1,0.9c22.5,4,39.6-11.3,38.3-34l-4.8-81.7c-1.3-22.8-10.8-24.8-21.3-4.5l-39,75.5C526.6,128,536.4,147.6,558.8,151.6z"/><path fill="#FF8000" d="M563.9,847.6l-5.1,0.9c-22.5,4-33.3,24.2-24.3,45.1l32.4,75.1c9,21,18.7,19.6,21.6-3l10.8-84.3C602.2,858.7,586.3,843.6,563.9,847.6z"/><path fill="#FF8000" d="M436.1,152.4l5.1-0.9c22.5-4,33.3-24.2,24.3-45.1l-32.4-75.1c-9-20.9-18.7-19.6-21.6,3l-10.8,84.3C397.8,141.3,413.7,156.4,436.1,152.4z"/><path fill="#FF8000" d="M723.7,824.4c-5-22.2-25.1-31-44.8-19.6l-4.5,2.6c-19.7,11.4-23,34.1-7.4,50.7l56.1,59.6c15.6,16.6,24.2,12,19.2-10.3L723.7,824.4z"/><path fill="#FF8000" d="M276.3,175.6c5,22.2,25.1,31,44.8,19.6l4.4-2.6c19.7-11.4,23.1-34.1,7.4-50.6l-56.1-59.5c-15.6-16.6-24.2-12-19.2,10.2L276.3,175.6z"/><path fill="#FF8000" d="M821.1,728.3c-12.3-19.2-34.2-20.6-48.8-3.1l-3.3,4c-14.7,17.5-10,39.9,10.4,50.2l73,36.7c20.3,10.2,26.9,3,14.6-16.2L821.1,728.3z"/><path fill="#FF8000" d="M178.8,271.7c12.3,19.2,34.1,20.6,48.8,3.1l3.3-4c14.7-17.5,10-39.9-10.4-50.1l-73-36.8c-20.4-10.2-26.9-3-14.6,16.2L178.8,271.7z"/><path fill="#FF8000" d="M947.4,656.2l-67.6-51.5c-18.1-13.8-39.1-7.6-47,13.8l-1.8,4.8c-7.8,21.4,4.3,40.9,26.9,43.6l81.2,9.5C961.9,679,965.6,670,947.4,656.2z"/><path fill="#FF8000" d="M52.5,343.8l67.6,51.5c18.1,13.8,39.1,7.7,46.9-13.8l1.8-4.8c7.8-21.4-4.3-40.9-26.9-43.6l-81.2-9.5C38.1,320.9,34.4,330,52.5,343.8z"/>
</svg>